<mxfile host="app.diagrams.net" modified="2023-08-16T18:35:15.248Z" agent="Mozilla/5.0 (Windows NT 10.0; Win64; x64) AppleWebKit/537.36 (KHTML, like Gecko) Chrome/115.0.0.0 Safari/537.36" etag="IoqVO1wUGt95V9aDboWz" version="21.6.8" type="device">
  <diagram name="PÃ¡gina-1" id="8rDbz_afFtcAnX6BNtK1">
    <mxGraphModel dx="1956" dy="1062" grid="1" gridSize="10" guides="1" tooltips="1" connect="1" arrows="1" fold="1" page="1" pageScale="1" pageWidth="827" pageHeight="1169" math="0" shadow="0">
      <root>
        <mxCell id="0" />
        <mxCell id="1" parent="0" />
        <mxCell id="th1MWf_GxppSfpVKtzUj-4" value="" style="edgeStyle=orthogonalEdgeStyle;rounded=0;orthogonalLoop=1;jettySize=auto;html=1;" edge="1" parent="1" source="th1MWf_GxppSfpVKtzUj-1" target="th1MWf_GxppSfpVKtzUj-2">
          <mxGeometry relative="1" as="geometry">
            <Array as="points">
              <mxPoint x="230" y="282" />
              <mxPoint x="230" y="282" />
            </Array>
          </mxGeometry>
        </mxCell>
        <object placeholders="1" c4Name="Front end" c4Type="Person" c4Description="Front end" label="&lt;font style=&quot;font-size: 16px&quot;&gt;&lt;b&gt;%c4Name%&lt;/b&gt;&lt;/font&gt;&lt;div&gt;[%c4Type%]&lt;/div&gt;&lt;br&gt;&lt;div&gt;&lt;font style=&quot;font-size: 11px&quot;&gt;&lt;font color=&quot;#cccccc&quot;&gt;%c4Description%&lt;/font&gt;&lt;/div&gt;" id="th1MWf_GxppSfpVKtzUj-1">
          <mxCell style="html=1;fontSize=11;dashed=0;whiteSpace=wrap;fillColor=#083F75;strokeColor=#06315C;fontColor=#ffffff;shape=mxgraph.c4.person2;align=center;metaEdit=1;points=[[0.5,0,0],[1,0.5,0],[1,0.75,0],[0.75,1,0],[0.5,1,0],[0.25,1,0],[0,0.75,0],[0,0.5,0]];resizable=0;" vertex="1" parent="1">
            <mxGeometry x="120" y="72" width="200" height="180" as="geometry" />
          </mxCell>
        </object>
        <mxCell id="th1MWf_GxppSfpVKtzUj-3" value="" style="edgeStyle=orthogonalEdgeStyle;rounded=0;orthogonalLoop=1;jettySize=auto;html=1;" edge="1" parent="1" source="th1MWf_GxppSfpVKtzUj-2" target="th1MWf_GxppSfpVKtzUj-1">
          <mxGeometry relative="1" as="geometry">
            <Array as="points">
              <mxPoint x="190" y="282" />
              <mxPoint x="190" y="282" />
            </Array>
          </mxGeometry>
        </mxCell>
        <mxCell id="th1MWf_GxppSfpVKtzUj-7" value="" style="edgeStyle=orthogonalEdgeStyle;rounded=0;orthogonalLoop=1;jettySize=auto;html=1;" edge="1" parent="1" source="th1MWf_GxppSfpVKtzUj-2" target="th1MWf_GxppSfpVKtzUj-5">
          <mxGeometry relative="1" as="geometry">
            <Array as="points">
              <mxPoint x="190" y="462" />
              <mxPoint x="190" y="462" />
            </Array>
          </mxGeometry>
        </mxCell>
        <object placeholders="1" c4Name="ProdutosResources" c4Type="Software System" c4Description="Resources" label="&lt;font style=&quot;font-size: 16px&quot;&gt;&lt;b&gt;%c4Name%&lt;/b&gt;&lt;/font&gt;&lt;div&gt;[%c4Type%]&lt;/div&gt;&lt;br&gt;&lt;div&gt;&lt;font style=&quot;font-size: 11px&quot;&gt;&lt;font color=&quot;#cccccc&quot;&gt;%c4Description%&lt;/font&gt;&lt;/div&gt;" id="th1MWf_GxppSfpVKtzUj-2">
          <mxCell style="rounded=1;whiteSpace=wrap;html=1;labelBackgroundColor=none;fillColor=#1061B0;fontColor=#ffffff;align=center;arcSize=10;strokeColor=#0D5091;metaEdit=1;resizable=0;points=[[0.25,0,0],[0.5,0,0],[0.75,0,0],[1,0.25,0],[1,0.5,0],[1,0.75,0],[0.75,1,0],[0.5,1,0],[0.25,1,0],[0,0.75,0],[0,0.5,0],[0,0.25,0]];" vertex="1" parent="1">
            <mxGeometry x="100" y="312" width="240" height="120" as="geometry" />
          </mxCell>
        </object>
        <mxCell id="th1MWf_GxppSfpVKtzUj-6" value="" style="edgeStyle=orthogonalEdgeStyle;rounded=0;orthogonalLoop=1;jettySize=auto;html=1;" edge="1" parent="1" source="th1MWf_GxppSfpVKtzUj-5" target="th1MWf_GxppSfpVKtzUj-2">
          <mxGeometry relative="1" as="geometry">
            <Array as="points">
              <mxPoint x="230" y="462" />
              <mxPoint x="230" y="462" />
            </Array>
          </mxGeometry>
        </mxCell>
        <mxCell id="th1MWf_GxppSfpVKtzUj-9" value="" style="edgeStyle=orthogonalEdgeStyle;rounded=0;orthogonalLoop=1;jettySize=auto;html=1;" edge="1" parent="1" source="th1MWf_GxppSfpVKtzUj-5" target="th1MWf_GxppSfpVKtzUj-8">
          <mxGeometry relative="1" as="geometry">
            <Array as="points">
              <mxPoint x="190" y="642" />
              <mxPoint x="190" y="642" />
            </Array>
          </mxGeometry>
        </mxCell>
        <object placeholders="1" c4Name="ProdutosServices" c4Type="Software System" c4Description="Services" label="&lt;font style=&quot;font-size: 16px&quot;&gt;&lt;b&gt;%c4Name%&lt;/b&gt;&lt;/font&gt;&lt;div&gt;[%c4Type%]&lt;/div&gt;&lt;br&gt;&lt;div&gt;&lt;font style=&quot;font-size: 11px&quot;&gt;&lt;font color=&quot;#cccccc&quot;&gt;%c4Description%&lt;/font&gt;&lt;/div&gt;" id="th1MWf_GxppSfpVKtzUj-5">
          <mxCell style="rounded=1;whiteSpace=wrap;html=1;labelBackgroundColor=none;fillColor=#1061B0;fontColor=#ffffff;align=center;arcSize=10;strokeColor=#0D5091;metaEdit=1;resizable=0;points=[[0.25,0,0],[0.5,0,0],[0.75,0,0],[1,0.25,0],[1,0.5,0],[1,0.75,0],[0.75,1,0],[0.5,1,0],[0.25,1,0],[0,0.75,0],[0,0.5,0],[0,0.25,0]];" vertex="1" parent="1">
            <mxGeometry x="100" y="492" width="240" height="120" as="geometry" />
          </mxCell>
        </object>
        <mxCell id="th1MWf_GxppSfpVKtzUj-10" value="" style="edgeStyle=orthogonalEdgeStyle;rounded=0;orthogonalLoop=1;jettySize=auto;html=1;" edge="1" parent="1" source="th1MWf_GxppSfpVKtzUj-8" target="th1MWf_GxppSfpVKtzUj-5">
          <mxGeometry relative="1" as="geometry">
            <Array as="points">
              <mxPoint x="230" y="642" />
              <mxPoint x="230" y="642" />
            </Array>
          </mxGeometry>
        </mxCell>
        <mxCell id="th1MWf_GxppSfpVKtzUj-14" value="" style="edgeStyle=orthogonalEdgeStyle;rounded=0;orthogonalLoop=1;jettySize=auto;html=1;" edge="1" parent="1" source="th1MWf_GxppSfpVKtzUj-8" target="th1MWf_GxppSfpVKtzUj-12">
          <mxGeometry relative="1" as="geometry">
            <Array as="points">
              <mxPoint x="190" y="832" />
              <mxPoint x="190" y="832" />
            </Array>
          </mxGeometry>
        </mxCell>
        <object placeholders="1" c4Name="ProdutosRepository" c4Type="Software System" c4Description="Repository" label="&lt;font style=&quot;font-size: 16px&quot;&gt;&lt;b&gt;%c4Name%&lt;/b&gt;&lt;/font&gt;&lt;div&gt;[%c4Type%]&lt;/div&gt;&lt;br&gt;&lt;div&gt;&lt;font style=&quot;font-size: 11px&quot;&gt;&lt;font color=&quot;#cccccc&quot;&gt;%c4Description%&lt;/font&gt;&lt;/div&gt;" id="th1MWf_GxppSfpVKtzUj-8">
          <mxCell style="rounded=1;whiteSpace=wrap;html=1;labelBackgroundColor=none;fillColor=#1061B0;fontColor=#ffffff;align=center;arcSize=10;strokeColor=#0D5091;metaEdit=1;resizable=0;points=[[0.25,0,0],[0.5,0,0],[0.75,0,0],[1,0.25,0],[1,0.5,0],[1,0.75,0],[0.75,1,0],[0.5,1,0],[0.25,1,0],[0,0.75,0],[0,0.5,0],[0,0.25,0]];" vertex="1" parent="1">
            <mxGeometry x="100" y="672" width="240" height="120" as="geometry" />
          </mxCell>
        </object>
        <mxCell id="th1MWf_GxppSfpVKtzUj-13" value="" style="edgeStyle=orthogonalEdgeStyle;rounded=0;orthogonalLoop=1;jettySize=auto;html=1;" edge="1" parent="1" source="th1MWf_GxppSfpVKtzUj-12" target="th1MWf_GxppSfpVKtzUj-8">
          <mxGeometry relative="1" as="geometry">
            <Array as="points">
              <mxPoint x="230" y="832" />
              <mxPoint x="230" y="832" />
            </Array>
          </mxGeometry>
        </mxCell>
        <object placeholders="1" c4Type="kiosque bd" c4Container="MySQL Container" label="&lt;font style=&quot;font-size: 16px&quot;&gt;&lt;b&gt;%c4Type%&lt;/b&gt;&lt;/font&gt;&lt;div&gt;[%c4Container%:&amp;nbsp;%c4Technology%]&lt;/div&gt;&lt;br&gt;&lt;div&gt;&lt;font style=&quot;font-size: 11px&quot;&gt;&lt;font color=&quot;#E6E6E6&quot;&gt;%c4Description%&lt;/font&gt;&lt;/div&gt;" id="th1MWf_GxppSfpVKtzUj-12">
          <mxCell style="shape=cylinder3;size=15;whiteSpace=wrap;html=1;boundedLbl=1;rounded=0;labelBackgroundColor=none;fillColor=#23A2D9;fontSize=12;fontColor=#ffffff;align=center;strokeColor=#0E7DAD;metaEdit=1;points=[[0.5,0,0],[1,0.25,0],[1,0.5,0],[1,0.75,0],[0.5,1,0],[0,0.75,0],[0,0.5,0],[0,0.25,0]];resizable=0;" vertex="1" parent="1">
            <mxGeometry x="100" y="872" width="240" height="120" as="geometry" />
          </mxCell>
        </object>
        <mxCell id="th1MWf_GxppSfpVKtzUj-20" style="edgeStyle=orthogonalEdgeStyle;rounded=0;orthogonalLoop=1;jettySize=auto;html=1;entryX=1;entryY=0.5;entryDx=0;entryDy=0;entryPerimeter=0;endArrow=baseDash;endFill=0;" edge="1" parent="1" source="th1MWf_GxppSfpVKtzUj-15" target="th1MWf_GxppSfpVKtzUj-2">
          <mxGeometry relative="1" as="geometry">
            <Array as="points">
              <mxPoint x="392" y="442" />
              <mxPoint x="392" y="372" />
            </Array>
          </mxGeometry>
        </mxCell>
        <mxCell id="th1MWf_GxppSfpVKtzUj-22" value="" style="edgeStyle=orthogonalEdgeStyle;rounded=0;orthogonalLoop=1;jettySize=auto;html=1;endArrow=baseDash;endFill=0;" edge="1" parent="1" source="th1MWf_GxppSfpVKtzUj-15" target="th1MWf_GxppSfpVKtzUj-5">
          <mxGeometry relative="1" as="geometry">
            <Array as="points">
              <mxPoint x="392" y="482" />
              <mxPoint x="392" y="552" />
            </Array>
          </mxGeometry>
        </mxCell>
        <object placeholders="1" c4Name="Produtos" c4Type="Software System" c4Description="Model" label="&lt;font style=&quot;font-size: 16px&quot;&gt;&lt;b&gt;%c4Name%&lt;/b&gt;&lt;/font&gt;&lt;div&gt;[%c4Type%]&lt;/div&gt;&lt;br&gt;&lt;div&gt;&lt;font style=&quot;font-size: 11px&quot;&gt;&lt;font color=&quot;#cccccc&quot;&gt;%c4Description%&lt;/font&gt;&lt;/div&gt;" id="th1MWf_GxppSfpVKtzUj-15">
          <mxCell style="rounded=1;whiteSpace=wrap;html=1;labelBackgroundColor=none;fillColor=#1061B0;fontColor=#ffffff;align=center;arcSize=10;strokeColor=#0D5091;metaEdit=1;resizable=0;points=[[0.25,0,0],[0.5,0,0],[0.75,0,0],[1,0.25,0],[1,0.5,0],[1,0.75,0],[0.75,1,0],[0.5,1,0],[0.25,1,0],[0,0.75,0],[0,0.5,0],[0,0.25,0]];" vertex="1" parent="1">
            <mxGeometry x="444" y="402" width="240" height="120" as="geometry" />
          </mxCell>
        </object>
        <mxCell id="th1MWf_GxppSfpVKtzUj-24" value="" style="rounded=0;whiteSpace=wrap;html=1;fillColor=none;" vertex="1" parent="1">
          <mxGeometry x="60" y="272" width="700" height="570" as="geometry" />
        </mxCell>
        <mxCell id="th1MWf_GxppSfpVKtzUj-25" value="&lt;font style=&quot;font-size: 26px;&quot;&gt;&lt;b style=&quot;&quot;&gt;Back&lt;/b&gt;&lt;b style=&quot;&quot;&gt;-end&lt;/b&gt;&lt;/font&gt;" style="text;html=1;strokeColor=none;fillColor=none;align=center;verticalAlign=middle;whiteSpace=wrap;rounded=0;" vertex="1" parent="1">
          <mxGeometry x="534" y="292" width="156" height="30" as="geometry" />
        </mxCell>
      </root>
    </mxGraphModel>
  </diagram>
</mxfile>
